<svg xmlns="http://www.w3.org/2000/svg" xmlns:xlink="http://www.w3.org/1999/xlink" fill="none" version="1.1" width="20" height="20" viewBox="0 0 20 20"><defs><clipPath id="master_svg0_905_5765"><rect x="0" y="0" width="20" height="20" rx="0"/></clipPath></defs><g clip-path="url(#master_svg0_905_5765)"><g><g><path d="M11.015963183795929,17.38330418359375L4.707617583795929,17.38329318359375C2.423359183795929,17.56358018359375,0.518997733795929,15.65922118359375,0.699286281795929,13.37496218359375L0.699286281795929,6.62496998359375C0.699286281795929,3.73997028359375,1.822617483795929,2.6166387796402,4.707617583795929,2.6166387796402L11.01596218379593,2.6166387796402C13.900128183795928,2.6166387796402,15.024294183795929,3.73997208359375,15.024294183795929,6.62497188359375L15.024294183795929,13.37497118359375C15.024294183795929,16.25913818359375,13.900128183795928,17.38330418359375,11.015963183795929,17.38330418359375ZM4.707617583795929,3.88330898359375C2.532617583795929,3.88330898359375,1.965956483795929,4.44997028359375,1.965956483795929,6.62496998359375L1.965956483795929,13.37496218359375C1.792197983795929,14.95553918359375,3.127041183795929,16.29038018359375,4.707617583795929,16.116623183593752L11.01596218379593,16.116640183593752C13.193461183795929,16.116640183593752,13.75762918379593,15.55247218359375,13.75762918379593,13.37497118359375L13.75762918379593,6.62497188359375C13.75762918379593,4.44747178359375,13.19429618379593,3.88330558359375,11.015963183795929,3.88330558359375L4.707617583795929,3.88330898359375Z" fill="currentColor" fill-opacity="1"/></g><g><path d="M17.59925158067093,15.0916632109375C17.112849080670927,15.0722502109375,16.644295480670927,14.9031649109375,16.257584380670927,14.6074982109375L14.032583980670928,13.0499964109375C13.86478648067093,12.9315414109375,13.765267180670929,12.7387247109375,13.765917080670928,12.5333309109375L13.765917080670928,7.4666638109375C13.765267180670929,7.2612681109375,13.864784580670928,7.0684512109375,14.032583980670928,6.9499972109375L16.257584380670927,5.3908306109375C16.64455778067093,5.0956432409375,17.11295398067093,4.9266136159375,17.59925158067093,4.9066638946535C17.84796028067093,4.9047298431375,18.09358098067093,4.9618507359375,18.31591898067093,5.0733306809375C18.96371398067093,5.4602401809375,19.32543698067093,6.1901985109375,19.24091798067093,6.9399974109375L19.24091798067093,13.0483303109375C19.331020980670928,13.7988748109375,18.96782898067093,14.5314770109375,18.31591898067093,14.9141632109375C18.09608798067093,15.0335082109375,17.84937368067093,15.0946132109375,17.59925158067093,15.0916632109375ZM17.60591778067093,6.1824977109375C17.37792668067093,6.2021011109375,17.16093518067093,6.2891303109375,16.98258478067093,6.4324977109375L15.024251280670928,7.7999973109375L15.024251280670928,12.1999969109375L16.98258478067093,13.5666637109375C17.16060238067093,13.7100534109375,17.37733818067093,13.7970981109375,17.60508428067093,13.8166637109375C17.64904388067093,13.8184385109375,17.69278318067093,13.8095779109375,17.73258478067093,13.7908306109375C17.844251480670927,13.7358303109375,17.97425158067093,13.5083313109375,17.97425158067093,13.0499964109375L17.97425158067093,6.9499972109375C17.97425158067093,6.4991641109375,17.844251480670927,6.2683307109375,17.73258478067093,6.2083305109375C17.69301488067093,6.1897769109375,17.649593180670927,6.1809212109375,17.60591778067093,6.1824977109375ZM9.865917980670929,9.791663610937501C8.83038407067093,9.791664610937499,7.990917980670929,8.9521985109375,7.990917980670929,7.9166646109375005C7.990917980670929,6.8811304109375,8.83038407067093,6.0416641109375,9.865917980670929,6.0416641109375C10.90145188067093,6.0416641109375,11.740917980670929,6.8811297109375005,11.740917980670929,7.9166636109374995C11.739541380670929,8.951626810937501,10.90088108067093,9.7902875109375,9.865917980670929,9.791663610937501ZM9.865917980670929,7.2916636109374995C9.52073978067093,7.2916636109374995,9.240917980670929,7.571485310937501,9.240917980670929,7.9166636109374995C9.240917980670929,8.2618418109375,9.52073978067093,8.5416636109375,9.865917980670929,8.5416636109375C10.211096080670929,8.5416636109375,10.490917980670929,8.2618418109375,10.490917980670929,7.9166636109374995C10.490458580670929,7.5716760109375,10.21090538067093,7.2921231109375,9.865917980670929,7.2916636109374995Z" fill="currentColor" fill-opacity="1"/></g></g></g></svg>